<svg version="1.0" xmlns="http://www.w3.org/2000/svg" viewBox="0 0 32 32"><path clip-rule="evenodd" d="M16 0a16 16 0 00-5.05 31.18c.8.14 1.05-.33 1.05-.76v-2.77c-4.45.96-5.37-2.11-5.37-2.11-.73-1.85-1.78-2.34-1.78-2.34-1.45-1 .11-.97.11-.97 1.6.11 2.45 1.65 2.45 1.65 1.43 2.44 3.75 1.73 4.66 1.33a3.42 3.42 0 011.01-2.14c-3.55-.4-7.28-1.78-7.28-7.91 0-1.75.62-3.17 1.64-4.3-.16-.4-.71-2.02.16-4.23 0 0 1.35-.43 4.4 1.65a15.31 15.31 0 018.01 0c3.05-2.07 4.4-1.65 4.4-1.65.87 2.2.32 3.83.15 4.24a6.18 6.18 0 011.65 4.29c0 6.15-3.74 7.5-7.3 7.9.57.49 1.09 1.45 1.09 2.94v4.43c0 .43.26.9 1.07.74A16 16 0 0016 0z" fill="#181616" fill-rule="evenodd"/></svg>